<?xml version="1.0" encoding="UTF-8"?>
<svg version="1.1" xmlns="http://www.w3.org/2000/svg" width="32" height="32">
<path d="M0 0 C10.56 0 21.12 0 32 0 C32 10.56 32 21.12 32 32 C21.44 32 10.88 32 0 32 C0 21.44 0 10.88 0 0 Z " fill="#2D2143" transform="translate(0,0)"/>
<path d="M0 0 C5.94 0 11.88 0 18 0 C18.33 0.99 18.66 1.98 19 3 C20.31200404 4.35432675 21.64631404 5.68733482 23 7 C23.99 8.485 23.99 8.485 25 10 C25.99 10.66 26.98 11.32 28 12 C26.65070536 15.83663072 24.92248975 18.65172569 22.375 21.8125 C21.74335938 22.60269531 21.11171875 23.39289062 20.4609375 24.20703125 C19.97882812 24.79871094 19.49671875 25.39039062 19 26 C18.38125 25.67 17.7625 25.34 17.125 25 C15.08981656 23.85806765 15.08981656 23.85806765 13 24 C6.54460094 23.41314554 6.54460094 23.41314554 4.1875 21.625 C3.08279066 20.11329248 2.03858519 18.55787778 1 17 C0.67 17 0.34 17 0 17 C0 11.39 0 5.78 0 0 Z " fill="#3A2740" transform="translate(0,0)"/>
<path d="M0 0 C4.46007771 1.36070167 7.89705535 3.45692078 11.6875 6.125 C10.33820536 9.96163072 8.60998975 12.77672569 6.0625 15.9375 C5.43085938 16.72769531 4.79921875 17.51789062 4.1484375 18.33203125 C3.66632812 18.92371094 3.18421875 19.51539062 2.6875 20.125 C-1.57788263 18.09213679 -4.96939427 15.46810573 -8.3125 12.125 C-8.88867676 7.76251885 -8.76950903 5.78974041 -6.25 2.125 C-3.3125 0.125 -3.3125 0.125 0 0 Z " fill="#F8F6F4" transform="translate(16.3125,5.875)"/>
<path d="M0 0 C2 3 2 3 3.4375 5.6875 C4.2109375 6.8321875 4.2109375 6.8321875 5 8 C5.99 8 6.98 8 8 8 C10.33333333 8 12.66666667 8 15 8 C13.02 10.97 13.02 10.97 11 14 C13.64 14.33 16.28 14.66 19 15 C18.67 15.99 18.34 16.98 18 18 C11.73 18 5.46 18 -1 18 C-1.020625 15.586875 -1.04125 13.17375 -1.0625 10.6875 C-1.071604 9.93170654 -1.08070801 9.17591309 -1.09008789 8.3972168 C-1.10287966 5.3160507 -0.98131601 2.94394804 0 0 Z " fill="#231C45" transform="translate(1,14)"/>
<path d="M0 0 C1.27230469 0.01804688 2.54460938 0.03609375 3.85546875 0.0546875 C5.31919922 0.08949219 5.31919922 0.08949219 6.8125 0.125 C6.8125 3.755 6.8125 7.385 6.8125 11.125 C3.70698334 11.125 2.45988916 10.5856285 -0.1875 9.125 C-0.8475 9.785 -1.5075 10.445 -2.1875 11.125 C-2.39375 10.01125 -2.6 8.8975 -2.8125 7.75 C-3.80378301 3.85900805 -3.80378301 3.85900805 -7.3125 2.6875 C-8.26125 2.501875 -9.21 2.31625 -10.1875 2.125 C-6.4507157 -0.36618953 -4.44298181 -0.0815226 0 0 Z " fill="#231C45" transform="translate(25.1875,-0.125)"/>
<path d="M0 0 C1.875 0.6875 1.875 0.6875 2.875 1.6875 C3 4.1875 3 4.1875 2.875 6.6875 C1.875 7.6875 1.875 7.6875 -1.125 7.8125 C-4.125 7.6875 -4.125 7.6875 -5.125 6.6875 C-5.375 4.25 -5.375 4.25 -5.125 1.6875 C-2.125 -0.3125 -2.125 -0.3125 0 0 Z " fill="#3A263D" transform="translate(17.125,10.3125)"/>
<path d="M0 0 C0.33 0.66 0.66 1.32 1 2 C0.328125 3.875 0.328125 3.875 -0.75 6 C-1.26820312 7.051875 -1.26820312 7.051875 -1.796875 8.125 C-3 10 -3 10 -6 12 C-9.1875 11.125 -9.1875 11.125 -12 10 C-11.34 8.68 -10.68 7.36 -10 6 C-8.35 6.33 -6.7 6.66 -5 7 C-3.35 4.69 -1.7 2.38 0 0 Z " fill="#683C34" transform="translate(24,18)"/>
<path d="M0 0 C0.66 0.33 1.32 0.66 2 1 C1.67 1.845625 1.34 2.69125 1 3.5625 C-0.21604913 7.74266888 -1.01124138 11.97751725 1 16 C-0.32 15.67 -1.64 15.34 -3 15 C-4.32963547 9.07707836 -3.71156055 6.21453952 -1 1 C-0.67 0.67 -0.34 0.34 0 0 Z " fill="#824D36" transform="translate(9,4)"/>
<path d="M0 0 C2.25 2.0625 2.25 2.0625 4 4 C3.67 4.66 3.34 5.32 3 6 C1.70414084 5.57507874 0.4133956 5.13454118 -0.875 4.6875 C-1.59429688 4.44386719 -2.31359375 4.20023437 -3.0546875 3.94921875 C-5 3 -5 3 -7 0 C-3.80367098 -1.06544301 -3.02974348 -1.19353531 0 0 Z " fill="#693E37" transform="translate(19,3)"/>
<path d="M0 0 C2 3 2 3 1.9375 6.0625 C1.958125 7.031875 1.97875 8.00125 2 9 C2.99 9.66 3.98 10.32 5 11 C0.125 10.125 0.125 10.125 -1 9 C-1.1328125 7.1875 -1.1328125 7.1875 -1.125 5 C-1.12757812 4.278125 -1.13015625 3.55625 -1.1328125 2.8125 C-1 1 -1 1 0 0 Z " fill="#191744" transform="translate(5,10)"/>
<path d="M0 0 C0.33 0.66 0.66 1.32 1 2 C0.22265625 3.9453125 0.22265625 3.9453125 -0.9375 6.125 C-1.31777344 6.84945313 -1.69804687 7.57390625 -2.08984375 8.3203125 C-2.39019531 8.87460937 -2.69054687 9.42890625 -3 10 C-3.99 10 -4.98 10 -6 10 C-5.18957164 8.51969728 -4.37659652 7.04078858 -3.5625 5.5625 C-2.88380859 4.32693359 -2.88380859 4.32693359 -2.19140625 3.06640625 C-1 1 -1 1 0 0 Z " fill="#8F522F" transform="translate(24,18)"/>
<path d="M0 0 C1.875 0.75 1.875 0.75 2.875 2.75 C0.565 3.41 -1.745 4.07 -4.125 4.75 C-4.455 3.76 -4.785 2.77 -5.125 1.75 C-2.125 -0.25 -2.125 -0.25 0 0 Z " fill="#593E46" transform="translate(17.125,10.25)"/>
</svg>
